<svg width="30" height="30" viewBox="0 0 30 30" fill="none" xmlns="http://www.w3.org/2000/svg">
<path d="M22.473 15.8701C22.3096 17.2893 21.7523 18.5877 20.9115 19.6541L21.9041 20.6461C22.415 21.1576 23.1557 21.3826 23.8582 21.2115C25.0377 20.9244 26.3344 21.2414 27.2555 22.1625C28.6605 23.5676 28.6594 25.8469 27.2531 27.2531C25.8469 28.6594 23.5676 28.6605 22.1625 27.2555C21.2338 26.3268 20.9197 25.0166 21.2191 23.8295C21.3973 23.1234 21.1734 22.3764 20.659 21.8619L19.6846 20.8875C18.6199 21.7354 17.3203 22.3008 15.8994 22.4701V23.7346C15.8994 24.3229 16.1432 24.8906 16.5896 25.2738C17.11 25.7209 17.4398 26.383 17.4398 27.1225C17.4398 28.4689 16.3477 29.5605 15 29.5605C13.6523 29.5605 12.5602 28.4689 12.5602 27.1225C12.5602 26.3684 12.9029 25.6939 13.442 25.2469C13.9043 24.8631 14.1592 24.2842 14.1592 23.6836V22.4766C12.7271 22.3172 11.4164 21.7564 10.3424 20.9086L9.12832 22.1227C8.72695 22.524 8.50078 23.0713 8.51602 23.6385C8.52949 24.1471 8.34316 24.6592 7.95527 25.0471C7.20586 25.7965 5.99004 25.7959 5.24004 25.0459C4.48945 24.2959 4.48887 23.0801 5.23887 22.3307C5.55586 22.0131 5.95723 21.8303 6.3709 21.7822C6.83496 21.7277 7.26856 21.5221 7.59902 21.1916L9.10957 19.6805C8.25762 18.6094 7.6916 17.301 7.52695 15.8701H6.29121C5.69648 15.8701 5.12285 16.1197 4.73965 16.5738C4.29258 17.1035 3.62402 17.4398 2.87754 17.4398C1.53105 17.4398 0.439453 16.3477 0.439453 15C0.439453 13.6523 1.53105 12.5602 2.87754 12.5602C3.62402 12.5602 4.29258 12.8965 4.73965 13.4262C5.12285 13.8803 5.69648 14.1299 6.29121 14.1299H7.52695C7.6916 12.6973 8.25879 11.3877 9.1125 10.3154L8.13809 9.34102C7.62363 8.82656 6.87656 8.60273 6.17051 8.78086C4.9834 9.08027 3.67324 8.76621 2.74453 7.8375C1.33945 6.43242 1.34063 4.15313 2.74688 2.74688C4.15313 1.34063 6.43242 1.33945 7.8375 2.74453C8.75859 3.66562 9.07559 4.96231 8.78848 6.1418C8.61738 6.84434 8.84238 7.58496 9.35391 8.0959L10.3459 9.08848C11.4193 8.24238 12.7289 7.68223 14.1592 7.52344V6.31641C14.1592 5.71582 13.9043 5.13691 13.442 4.75313C12.9029 4.30605 12.5602 3.63164 12.5602 2.87754C12.5602 1.53105 13.6523 0.439453 15 0.439453C16.3477 0.439453 17.4398 1.53105 17.4398 2.87754C17.4398 3.61699 17.11 4.2791 16.5896 4.72617C16.1432 5.10938 15.8994 5.67715 15.8994 6.26543V7.52988C17.3186 7.69922 18.617 8.26348 19.6805 9.10957L21.283 7.50762C21.5959 7.19473 21.8109 6.7916 21.8666 6.35332C21.9088 6.01582 22.06 5.68945 22.3189 5.43047C22.9395 4.80937 23.9467 4.80996 24.5684 5.43164C25.19 6.05332 25.1906 7.06055 24.5695 7.68105C24.3217 7.92891 24.0129 8.07773 23.6912 8.12754C23.257 8.19492 22.8545 8.39648 22.5434 8.70762L20.9086 10.3424C21.7506 11.4088 22.3096 12.7096 22.473 14.1299H23.7088C24.3035 14.1299 24.8771 13.8803 25.2604 13.4262C25.7074 12.8965 26.376 12.5602 27.1225 12.5602C28.4689 12.5602 29.5605 13.6523 29.5605 15C29.5605 16.3477 28.4689 17.4398 27.1225 17.4398C26.376 17.4398 25.7074 17.1035 25.2604 16.5738C24.8771 16.1197 24.3035 15.8701 23.7088 15.8701H22.473Z" fill="#FF2261"/>
<path d="M22.473 15.8701C22.3096 17.2893 21.7523 18.5877 20.9115 19.6541L21.9041 20.6461C22.415 21.1576 23.1557 21.3826 23.8582 21.2115C25.0377 20.9244 26.3344 21.2414 27.2555 22.1625C28.6605 23.5676 28.6594 25.8469 27.2531 27.2531C25.8469 28.6594 23.5676 28.6605 22.1625 27.2555C21.2338 26.3268 20.9197 25.0166 21.2191 23.8295C21.3973 23.1234 21.1734 22.3764 20.659 21.8619L19.6846 20.8875C18.6199 21.7354 17.3203 22.3008 15.8994 22.4701V23.7346C15.8994 24.3229 16.1432 24.8906 16.5896 25.2738C17.11 25.7209 17.4398 26.383 17.4398 27.1225C17.4398 28.4689 16.3477 29.5605 15 29.5605V29.3033C15.6891 28.9682 16.1643 28.2615 16.1643 27.4436C16.1643 26.8723 15.9322 26.3549 15.5578 25.9811C15.1998 25.623 15 25.1373 15 24.6316V22.1098C15 21.7535 15.2637 21.4512 15.617 21.4061C18.4014 21.0504 20.5664 18.3182 20.5664 15C20.5664 11.6818 18.4014 8.94961 15.617 8.59395C15.2637 8.54883 15 8.24648 15 7.89023V5.29688C15 4.81406 15.1746 4.3418 15.5109 3.99551C15.8725 3.62344 16.0945 3.11602 16.0945 2.55645C16.0945 1.7666 15.6516 1.08047 15 0.733008V0.439453C16.3477 0.439453 17.4398 1.53105 17.4398 2.87754C17.4398 3.61699 17.11 4.2791 16.5896 4.72617C16.1432 5.10938 15.8994 5.67715 15.8994 6.26543V7.52988C17.3186 7.69922 18.617 8.26348 19.6805 9.10957L21.283 7.50762C21.5959 7.19473 21.8109 6.7916 21.8666 6.35332C21.9088 6.01582 22.06 5.68945 22.3189 5.43047C22.9395 4.80937 23.9467 4.80996 24.5684 5.43164C25.19 6.05332 25.1906 7.06055 24.5695 7.68105C24.3217 7.92891 24.0129 8.07773 23.6912 8.12754C23.257 8.19492 22.8545 8.39648 22.5434 8.70762L20.9086 10.3424C21.7506 11.4088 22.3096 12.7096 22.473 14.1299H23.7088C24.3035 14.1299 24.8771 13.8803 25.2604 13.4262C25.7074 12.8965 26.376 12.5602 27.1225 12.5602C28.4689 12.5602 29.5605 13.6523 29.5605 15C29.5605 16.3477 28.4689 17.4398 27.1225 17.4398C26.376 17.4398 25.7074 17.1035 25.2604 16.5738C24.8771 16.1197 24.3035 15.8701 23.7088 15.8701H22.473Z" fill="#B7305D"/>
<path d="M14.751 12.985C14.751 13.8193 14.0748 14.4955 13.2404 14.4955C13.0154 14.4955 12.8015 14.4463 12.6099 14.3572C12.0902 14.1188 11.7299 13.5943 11.7299 12.985C11.7299 12.3756 12.0902 11.8512 12.6099 11.6127C12.8015 11.5236 13.0154 11.4744 13.2404 11.4744C14.0748 11.4744 14.751 12.1506 14.751 12.985Z" fill="#99F5D2"/>
<path d="M14.751 12.985C14.751 13.8193 14.0748 14.4955 13.2405 14.4955C13.0155 14.4955 12.8016 14.4463 12.61 14.3572C13.1291 14.1188 13.4895 13.5938 13.4895 12.985C13.4895 12.3762 13.1291 11.8512 12.61 11.6127C12.8016 11.5236 13.0155 11.4744 13.2405 11.4744C14.0748 11.4744 14.751 12.1506 14.751 12.985Z" fill="#69D8E4"/>
<path d="M18.7424 15.3627C18.7424 16.1051 18.1406 16.7068 17.3982 16.7068C17.1908 16.7068 16.9939 16.66 16.8187 16.5756C16.3664 16.3594 16.0541 15.8977 16.0541 15.3627C16.0541 14.8277 16.3664 14.366 16.8187 14.1498C16.9939 14.0654 17.1908 14.0186 17.3982 14.0186C18.1406 14.0186 18.7424 14.6203 18.7424 15.3627Z" fill="#99F5D2"/>
<path d="M18.7424 15.3627C18.7424 16.1051 18.1406 16.7068 17.3982 16.7068C17.1908 16.7068 16.9939 16.66 16.8187 16.5756C17.2705 16.3594 17.5828 15.8977 17.5828 15.3627C17.5828 14.8277 17.2705 14.366 16.8187 14.1498C16.9939 14.0654 17.1908 14.0186 17.3982 14.0186C18.1406 14.0186 18.7424 14.6203 18.7424 15.3627Z" fill="#69D8E4"/>
<path d="M14.676 17.4891C14.676 18.0797 14.1973 18.5584 13.6066 18.5584C13.4238 18.5584 13.2521 18.5127 13.1016 18.4318C12.7658 18.2514 12.5373 17.8969 12.5373 17.4891C12.5373 17.0813 12.7658 16.7268 13.1016 16.5463C13.2521 16.4654 13.4238 16.4197 13.6066 16.4197C14.1973 16.4197 14.676 16.8984 14.676 17.4891Z" fill="#99F5D2"/>
<path d="M14.676 17.4891C14.676 18.0797 14.1973 18.5584 13.6066 18.5584C13.4238 18.5584 13.2521 18.5127 13.1016 18.4318C13.4373 18.2514 13.6652 17.8969 13.6652 17.4891C13.6652 17.0813 13.4373 16.7268 13.1016 16.5463C13.2521 16.4654 13.4238 16.4197 13.6066 16.4197C14.1973 16.4197 14.676 16.8984 14.676 17.4891Z" fill="#69D8E4"/>
<path d="M21.5725 25.0978C21.525 24.7076 21.5495 24.317 21.6454 23.9367C21.8522 23.1165 21.6122 22.2284 21.0187 21.6015L19.2465 19.8279C19.0749 19.6563 18.7966 19.6563 18.625 19.8279C18.4534 19.9995 18.4534 20.2778 18.625 20.4494L19.0136 20.8379C18.0712 21.4869 16.9861 21.8979 15.8473 22.0335C15.6263 22.0599 15.4598 22.2473 15.4598 22.4699V23.7344C15.4598 24.4644 15.7673 25.147 16.3034 25.6073C16.7465 25.9876 17.0006 26.5399 17.0006 27.1227C17.0005 28.2246 16.1031 29.1211 15 29.1211C13.8969 29.1211 12.9995 28.2246 12.9995 27.1227C12.9995 26.88 12.8028 26.6833 12.5601 26.6833C12.3174 26.6833 12.1206 26.88 12.1206 27.1227C12.1206 28.7093 13.4123 30 15 30C16.5877 30 17.8794 28.7093 17.8794 27.1227C17.8794 26.2834 17.5136 25.488 16.8759 24.9404C16.5345 24.6474 16.3387 24.2078 16.3387 23.7344V22.8504C17.5309 22.6483 18.6605 22.1761 19.6443 21.4686L20.3502 22.1745C20.7604 22.586 20.9302 23.1786 20.7932 23.7218C20.6707 24.2074 20.6394 24.7061 20.7001 25.204C20.7294 25.4449 20.9482 25.6163 21.1895 25.5871C21.4303 25.5578 21.6018 25.3386 21.5725 25.0978Z" fill="#FAFAFA"/>
<path d="M13.72 23.6835C13.72 24.1672 13.5163 24.6137 13.1612 24.9084C12.9745 25.0634 12.9487 25.3405 13.1037 25.5272C13.2588 25.714 13.5357 25.7397 13.7225 25.5847C14.2795 25.1225 14.5989 24.4295 14.5989 23.6835V22.4766C14.5989 22.2527 14.4305 22.0645 14.208 22.0398C12.8957 21.8939 11.6531 21.3834 10.6146 20.5637C10.4397 20.4257 10.1892 20.4404 10.0316 20.5979L8.81742 21.812C8.32834 22.3011 8.05834 22.9713 8.07674 23.6505C8.08781 24.0608 7.9343 24.4464 7.64449 24.7362C7.06752 25.3132 6.1282 25.3127 5.55059 24.7351C5.27074 24.4552 5.11652 24.0832 5.11635 23.6877C5.11617 23.2922 5.26998 22.9206 5.54941 22.6412C5.78707 22.4035 6.08883 22.2573 6.42199 22.2185C6.98525 22.1527 7.51365 21.8984 7.90975 21.5023L9.42064 19.9914C9.57867 19.8333 9.59291 19.5819 9.45375 19.407C8.7331 18.5013 8.24848 17.4388 8.0373 16.3093H9.20631C9.449 16.3093 9.64576 16.1125 9.64576 15.8698C9.64576 15.6271 9.449 15.4304 9.20631 15.4304H6.29115C5.55311 15.4304 4.86522 15.7438 4.40391 16.2904C4.02305 16.7416 3.46664 17.0004 2.87742 17.0004C1.77539 17.0005 0.878906 16.1031 0.878906 15C0.878906 13.8969 1.77539 12.9995 2.8773 12.9995C3.46652 12.9995 4.02293 13.2583 4.40379 13.7095C4.86516 14.2561 5.55299 14.5696 6.29104 14.5696H8.62025C8.86295 14.5696 9.05971 14.3728 9.05971 14.1301C9.05971 13.8874 8.86295 13.6907 8.62025 13.6907H8.03719C8.21854 12.7209 8.60139 11.8006 9.16213 10.9865L9.96357 11.7879C10.0494 11.8738 10.1619 11.9167 10.2743 11.9167C10.3867 11.9167 10.4992 11.8738 10.585 11.7879C10.7566 11.6163 10.7566 11.3381 10.585 11.1665L8.44881 9.03023C7.81969 8.40111 6.90568 8.14219 6.0634 8.35465C4.97314 8.62945 3.84873 8.32008 3.05561 7.52695C1.82402 6.29531 1.82502 4.29053 3.05777 3.05777C4.29053 1.82508 6.29537 1.82402 7.52689 3.05555C8.31252 3.84123 8.62447 4.95621 8.36139 6.03814C8.15783 6.87527 8.41898 7.78289 9.04289 8.4068L10.7955 10.1594C10.8813 10.2452 10.9938 10.2881 11.1062 10.2881C11.2187 10.2881 11.3312 10.2452 11.4169 10.1594C11.5886 9.98777 11.5886 9.70951 11.4169 9.53795L11.0187 9.13969C11.9689 8.49305 13.0618 8.08758 14.2079 7.96014C14.4304 7.93541 14.5987 7.74727 14.5987 7.52338V6.31646C14.5987 5.57045 14.2794 4.8774 13.7224 4.41521C13.2629 4.03383 12.9994 3.47326 12.9994 2.87725C12.9995 1.77539 13.8969 0.878906 15 0.878906C16.1031 0.878906 17.0005 1.77539 17.0005 2.8773C17.0005 3.12 17.1973 3.31676 17.44 3.31676C17.6827 3.31676 17.8794 3.12 17.8794 2.8773C17.8794 1.29076 16.5877 0 15 0C13.4123 0 12.1206 1.29076 12.1206 2.8773C12.1206 3.73559 12.4999 4.54266 13.1612 5.09156C13.5163 5.38629 13.72 5.83277 13.72 6.31652V7.14C12.519 7.3343 11.3801 7.80193 10.3874 8.5084L9.66445 7.78535C9.25594 7.37689 9.08391 6.78697 9.21545 6.24586C9.5516 4.8634 9.15275 3.43846 8.1484 2.4341C6.57422 0.859922 4.01174 0.860859 2.43633 2.43633C0.860918 4.01174 0.859922 6.57416 2.4341 8.1484C3.43295 9.14719 4.90582 9.55283 6.27826 9.20684C6.82219 9.06967 7.4158 9.24006 7.82736 9.65168L8.53143 10.3557C7.81805 11.3477 7.34414 12.4876 7.1448 13.6907H6.29109C5.81256 13.6907 5.36947 13.4909 5.07545 13.1426C4.52725 12.4931 3.72604 12.1206 2.8773 12.1206C1.29076 12.1206 0 13.4123 0 15C0 16.5877 1.29076 17.8794 2.8773 17.8794C3.72604 17.8794 4.52719 17.5069 5.07545 16.8574C5.36941 16.5091 5.8125 16.3093 6.29109 16.3093H7.1448C7.34385 17.511 7.8167 18.6493 8.52861 19.6404L7.28824 20.8809C7.03148 21.1376 6.68766 21.3026 6.32016 21.3455C5.78842 21.4076 5.30701 21.6407 4.92797 22.0197C4.48242 22.4653 4.23721 23.0578 4.23744 23.6881C4.23773 24.3183 4.48336 24.9108 4.92914 25.3566C5.38951 25.817 5.99414 26.0472 6.59865 26.0472C7.20258 26.0472 7.80639 25.8174 8.266 25.3578C8.72824 24.8955 8.97305 24.2808 8.95535 23.6268C8.94346 23.1878 9.11977 22.7528 9.43893 22.4336L10.3836 21.4889C11.3772 22.1969 12.5174 22.6655 13.72 22.8601V23.6835H13.72Z" fill="#FAFAFA"/>
<path d="M23.709 16.3093C24.1875 16.3093 24.6306 16.5091 24.9246 16.8574C25.4728 17.5069 26.274 17.8794 27.1227 17.8794C28.7092 17.8794 30 16.5877 30 15C30 13.4123 28.7092 12.1206 27.1227 12.1206C26.274 12.1206 25.4728 12.4931 24.9245 13.1426C24.6306 13.4909 24.1875 13.6907 23.7089 13.6907H22.8551C22.6577 12.4991 22.1908 11.3688 21.4888 10.3836L22.8541 9.01817C23.0986 8.77366 23.4115 8.61587 23.7588 8.56184C24.1859 8.4954 24.5736 8.29835 24.88 7.99196C25.2634 7.60858 25.4744 7.09876 25.4742 6.55641C25.474 6.01419 25.2626 5.50436 24.8791 5.12081C24.4956 4.73725 23.9857 4.52591 23.4435 4.52567H23.4425C22.9005 4.52567 22.391 4.73667 22.0079 5.11981C21.6868 5.44085 21.4871 5.84825 21.4302 6.29802C21.3891 6.62327 21.2263 6.94249 20.9722 7.19673L19.6403 8.52856C18.6575 7.82268 17.5291 7.35141 16.3386 7.14956V6.26555C16.3386 5.79218 16.5344 5.3526 16.8757 5.05952C17.0599 4.90143 17.081 4.62399 16.923 4.43983C16.7649 4.25567 16.4874 4.23458 16.3033 4.3926C15.7672 4.85286 15.4597 5.53548 15.4597 6.2655V7.53001C15.4597 7.7526 15.6261 7.94005 15.8471 7.96635C17.148 8.12134 18.3789 8.63555 19.4069 9.45358C19.5818 9.59274 19.8333 9.5785 19.9913 9.42048L21.5937 7.81811C21.9851 7.42671 22.2367 6.92596 22.3022 6.40817C22.3344 6.15364 22.4475 5.92302 22.6294 5.7412C22.8465 5.52405 23.1353 5.40446 23.4426 5.40446H23.4431C23.7507 5.40458 24.04 5.52452 24.2576 5.74214C24.4752 5.95975 24.5952 6.24903 24.5954 6.55665C24.5955 6.86415 24.4759 7.15313 24.2586 7.3704C24.085 7.54401 23.8655 7.65569 23.6238 7.69325C23.091 7.77616 22.6099 8.01932 22.2327 8.39655L20.5979 10.0314C20.4403 10.1889 20.4256 10.4395 20.5637 10.6144C21.2746 11.515 21.7532 12.57 21.9627 13.6905H20.7937C20.551 13.6905 20.3543 13.8873 20.3543 14.1299C20.3543 14.3726 20.551 14.5694 20.7937 14.5694H23.7089C24.4469 14.5694 25.1348 14.2559 25.5961 13.7094C25.977 13.2581 26.5334 12.9993 27.1226 12.9993C28.2246 12.9995 29.1211 13.8969 29.1211 15C29.1211 16.1031 28.2246 17.0005 27.1227 17.0005C26.5335 17.0005 25.9771 16.7417 25.5962 16.2905C25.1348 15.7439 24.447 15.4304 23.709 15.4304H21.3797C21.137 15.4304 20.9403 15.6272 20.9403 15.8699C20.9403 16.1126 21.137 16.3093 21.3797 16.3093H21.9628C21.7839 17.2661 21.4087 18.1753 20.8603 18.9812L20.0784 18.1993C19.9068 18.0277 19.6285 18.0277 19.457 18.1993C19.2854 18.371 19.2854 18.6492 19.457 18.8208L21.5932 20.957C22.2172 21.5809 23.1248 21.8421 23.9619 21.6385C25.044 21.3754 26.1589 21.6874 26.9445 22.4731C27.541 23.0696 27.8693 23.863 27.869 24.7069C27.8686 25.5511 27.5395 26.3449 26.9423 26.9421C25.7095 28.1749 23.7047 28.1759 22.4732 26.9443C22.3709 26.842 22.275 26.7322 22.1883 26.618C22.0416 26.4247 21.7659 26.3869 21.5726 26.5337C21.3793 26.6805 21.3415 26.9561 21.4883 27.1495C21.5991 27.2954 21.7214 27.4355 21.8518 27.5658C22.6385 28.3526 23.672 28.7459 24.7057 28.7459C25.7406 28.7459 26.7757 28.3518 27.5638 27.5636C28.327 26.8006 28.7475 25.7862 28.748 24.7074C28.7484 23.6284 28.3287 22.6142 27.5661 21.8516C26.5617 20.8473 25.1369 20.4485 23.7543 20.7846C23.2131 20.9162 22.6233 20.7441 22.2148 20.3356L21.4918 19.6126C22.1922 18.6283 22.6582 17.4993 22.8554 16.3093H23.709Z" fill="#FAFAFA"/>
<path d="M13.2406 11.0349C12.1654 11.0349 11.2906 11.9097 11.2906 12.9849C11.2906 14.0602 12.1654 14.9349 13.2406 14.9349C14.3158 14.9349 15.1906 14.0602 15.1906 12.9849C15.1906 11.9097 14.3158 11.0349 13.2406 11.0349ZM13.2406 14.056C12.65 14.056 12.1696 13.5755 12.1696 12.9849C12.1696 12.3943 12.65 11.9138 13.2406 11.9138C13.8312 11.9138 14.3117 12.3943 14.3117 12.9849C14.3117 13.5755 13.8312 14.056 13.2406 14.056Z" fill="black"/>
<path d="M15.6149 15.3627C15.6149 16.3462 16.415 17.1463 17.3985 17.1463C18.382 17.1463 19.1821 16.3462 19.1821 15.3627C19.1821 14.3792 18.382 13.5791 17.3985 13.5791C16.415 13.5791 15.6149 14.3792 15.6149 15.3627ZM17.3985 14.458C17.8973 14.458 18.3032 14.8639 18.3032 15.3627C18.3032 15.8616 17.8973 16.2674 17.3985 16.2674C16.8996 16.2674 16.4938 15.8616 16.4938 15.3627C16.4938 14.8638 16.8996 14.458 17.3985 14.458Z" fill="black"/>
<path d="M12.0978 17.4889C12.0978 18.3209 12.7747 18.9977 13.6066 18.9977C14.4386 18.9977 15.1155 18.3209 15.1155 17.4889C15.1155 16.6569 14.4386 15.98 13.6066 15.98C12.7747 15.98 12.0978 16.6569 12.0978 17.4889ZM14.2366 17.4889C14.2366 17.8362 13.954 18.1188 13.6067 18.1188C13.2593 18.1188 12.9767 17.8362 12.9767 17.4889C12.9767 17.1415 13.2593 16.8589 13.6067 16.8589C13.954 16.8589 14.2366 17.1415 14.2366 17.4889Z" fill="black"/>
<path d="M3.54377 5.28723C3.78632 5.28723 3.98293 5.09061 3.98293 4.84806C3.98293 4.60552 3.78632 4.40891 3.54377 4.40891C3.30123 4.40891 3.10461 4.60552 3.10461 4.84806C3.10461 5.09061 3.30123 5.28723 3.54377 5.28723Z" fill="black"/>
<path d="M3.94825 6.90662C4.18764 6.86782 4.35024 6.64229 4.31143 6.40291C4.27263 6.16352 4.04711 6.00091 3.80772 6.03972C3.56833 6.07853 3.40573 6.30405 3.44453 6.54344C3.48334 6.78283 3.70886 6.94543 3.94825 6.90662Z" fill="black"/>
<path d="M5.07539 5.97247C5.31793 5.97247 5.51455 5.77585 5.51455 5.53331C5.51455 5.29077 5.31793 5.09415 5.07539 5.09415C4.83285 5.09415 4.63623 5.29077 4.63623 5.53331C4.63623 5.77585 4.83285 5.97247 5.07539 5.97247Z" fill="black"/>
<path d="M24.5206 22.5141C24.278 22.5141 24.0814 22.7108 24.0814 22.9533C24.0814 23.1959 24.2781 23.3925 24.5206 23.3925C24.7631 23.3925 24.9597 23.1958 24.9597 22.9533C24.9597 22.7108 24.7631 22.5141 24.5206 22.5141Z" fill="black"/>
<path d="M24.4171 24.5783C24.4171 24.8209 24.6138 25.0175 24.8563 25.0175C25.0988 25.0175 25.2954 24.8208 25.2954 24.5783C25.2954 24.3357 25.0988 24.1392 24.8563 24.1392C24.6138 24.1392 24.4171 24.3357 24.4171 24.5783Z" fill="black"/>
<path d="M26.0522 24.0777C26.2947 24.0777 26.4914 23.8811 26.4914 23.6385C26.4914 23.396 26.2947 23.1994 26.0522 23.1994C25.8097 23.1994 25.613 23.396 25.613 23.6385C25.613 23.8811 25.8097 24.0777 26.0522 24.0777Z" fill="black"/>
<path d="M16.7358 19.8003C16.9783 19.8003 17.1749 19.6037 17.1749 19.3612C17.1749 19.1186 16.9783 18.922 16.7358 18.922C16.4932 18.922 16.2966 19.1186 16.2966 19.3612C16.2966 19.6037 16.4932 19.8003 16.7358 19.8003Z" fill="black"/>
<path d="M16.7355 11.48C16.9781 11.48 17.1747 11.2834 17.1747 11.0409C17.1747 10.7983 16.9781 10.6017 16.7355 10.6017C16.493 10.6017 16.2964 10.7983 16.2964 11.0409C16.2964 11.2834 16.493 11.48 16.7355 11.48Z" fill="black"/>
<path d="M11.052 16.1675C11.2945 16.1675 11.4911 15.9709 11.4911 15.7284C11.4911 15.4858 11.2945 15.2892 11.052 15.2892C10.8094 15.2892 10.6128 15.4858 10.6128 15.7284C10.6128 15.9709 10.8094 16.1675 11.052 16.1675Z" fill="black"/>
</svg>
